# xmcd CD database file
#
# Track frame offsets:
#	150
#	20681
#	35614
#	48132
#	70654
#	101562
#	111297
#	124714
#	144411
#	173316
#
# Disc length: 2678 seconds
#
# Revision: 2
# Processed by: cddbd v1.5.2PL0 Copyright (c) Steve Scherf et al.
# Submitted via: CDex 1.70beta3
#
DISCID=7c0a740a
DTITLE=綾小路きみまろ - 爆笑スーパーライブ第2集! ガンバッテいただきたいの...
DYEAR=2006
DGENRE=Comedy
TTITLE0=ご挨拶
TTITLE1=人生は幸せ捜し
TTITLE2=昔ピンピン、今ペンペン
TTITLE3=美人薄命
TTITLE4=あれから40年
TTITLE5=忘れん坊編
TTITLE6=想い出は美しく
TTITLE7=猫のミーちゃん
TTITLE8=夫婦の関係
TTITLE9=人生の最後は人まかせ
EXTD=YEAR: 2006
EXTT0=
EXTT1=
EXTT2=
EXTT3=
EXTT4=
EXTT5=
EXTT6=
EXTT7=
EXTT8=
EXTT9=
PLAYORDER=
